# xmcd
#
# Track frame offsets:
# 150
# 17452
# 30070
# 43849
# 61052
# 74223
# 85945
# 96844
# 110552
# 124921
#
# Disc length: 1832 seconds
#
#
# Revision: 0
# Processed by: cddbd v1.5.2PL0 Copyright (c) Steve Scherf et al.
# Submitted via: FreeRIP 2.96 
#
DISCID=7f07260a
DTITLE=johnny western - country and johnny western
DYEAR=2008
DGENRE=Country
TTITLE0=whoever finds this, I love you
TTITLE1=the last time I saw phoenix
TTITLE2=the singin man
TTITLE3=forty shades of green
TTITLE4=used too
TTITLE5=the gunfighter
TTITLE6=geronimo
TTITLE7=mr. rodeo cowboy
TTITLE8=arizona morning
TTITLE9=can you hear those pioneers
EXTD=
EXTT0=
EXTT1=
EXTT2=
EXTT3=
EXTT4=
EXTT5=
EXTT6=
EXTT7=
EXTT8=
EXTT9=
PLAYORDER=
